<?xml version="1.0" encoding="utf-8"?>
<svg width="240px" height="240px" viewBox="0 0 240 240" version="1.1" xmlns:xlink="http://www.w3.org/1999/xlink" xmlns="http://www.w3.org/2000/svg">
  <g id="home">
    <path d="M0 0L240 0L240 240L0 240L0 0L0 0Z" id="Background" fill="#FFFFFF" fill-opacity="0" fill-rule="evenodd" stroke="none" />
    <path d="M120 5.04375C118.956 5.04375 117.916 5.37488 117.028 6.04688L6.62813 92.2125C4.56413 93.8445 4.1805 96.8599 5.8125 98.9719C7.4445 101.036 10.4599 101.42 12.5719 99.7875L19.2 94.6125L19.2 220.8C19.2 223.44 21.36 225.6 24 225.6L91.2 225.6L91.2 139.2L148.8 139.2L148.8 225.6L216 225.6C218.64 225.6 220.8 223.44 220.8 220.8L220.8 94.6125L227.428 99.7875C228.34 100.46 229.344 100.8 230.4 100.8C231.84 100.8 233.228 100.172 234.188 98.9719C235.819 96.8599 235.436 93.8445 233.372 92.2125L122.972 6.04688C122.084 5.37488 121.044 5.04375 120 5.04375L120 5.04375L120 5.04375ZM168 24L168 29.0438L196.8 51.5063L196.8 24L168 24L168 24L168 24Z" id="Shape" fill="#FFFFFF" fill-rule="evenodd" stroke="none" />
  </g>
</svg>