<?xml version="1.0" encoding="utf-8"?>
<svg width="240px" height="240px" viewBox="0 0 240 240" version="1.1" xmlns:xlink="http://www.w3.org/1999/xlink" xmlns="http://www.w3.org/2000/svg">
  <defs>
    <linearGradient gradientUnits="userSpaceOnUse" x1="0" y1="0" x2="192" y2="192" id="gradient_1">
      <stop offset="0%" stop-color="#87B3A4" />
      <stop offset="50.470085%" stop-color="#7690B0" />
      <stop offset="100%" stop-color="#3E4C52" />
    </linearGradient>
    <path d="M0 0L240 0L240 240L0 240L0 0Z" id="path_1" />
    <clipPath id="mask_1">
      <use xlink:href="#path_1" />
    </clipPath>
  </defs>
  <g id="icons8-linkedin-circled">
    <path d="M0 0L240 0L240 240L0 240L0 0Z" id="Background" fill="#FFFFFF" fill-opacity="0" fill-rule="evenodd" stroke="none" />
    <path d="M120 24C66.984 24 24 66.984 24 120C24 173.016 66.984 216 120 216C173.016 216 216 173.016 216 120C216 66.984 173.016 24 120 24L120 24ZM83.968 67.224C90.704 67.224 95.192 71.712 95.192 77.696C95.192 83.68 90.704 88.168 83.224 88.168C76.488 88.176 72 83.68 72 77.696C72 71.712 76.488 67.224 83.968 67.224L83.968 67.224ZM96 160L72 160L72 96L96 96L96 160L96 160ZM176 160L153.408 160L153.408 125.024C153.408 115.352 147.384 113.12 145.128 113.12C142.872 113.12 135.336 114.608 135.336 125.024C135.336 126.512 135.336 160 135.336 160L112 160L112 96L135.344 96L135.344 104.928C138.352 99.72 144.376 96 155.672 96C166.968 96 176 104.928 176 125.024L176 160L176 160Z" id="Shape" fill="url(#gradient_1)" fill-rule="evenodd" stroke="none" />
  </g>
</svg>