<?xml version="1.0" encoding="utf-8"?>
<svg width="240px" height="240px" viewBox="0 0 240 240" version="1.1" xmlns:xlink="http://www.w3.org/1999/xlink" xmlns="http://www.w3.org/2000/svg">
  <defs>
    <linearGradient gradientUnits="userSpaceOnUse" x1="0" y1="0" x2="208.00801" y2="169.032" id="gradient_1">
      <stop offset="0%" stop-color="#87B3A4" />
      <stop offset="50.470085%" stop-color="#7690B0" />
      <stop offset="100%" stop-color="#3E4C52" />
    </linearGradient>
    <path d="M0 0L240 0L240 240L0 240L0 0Z" id="path_1" />
    <clipPath id="mask_1">
      <use xlink:href="#path_1" />
    </clipPath>
  </defs>
  <g id="icons8-twitter">
    <path d="M0 0L240 0L240 240L0 240L0 0Z" id="Background" fill="#FFFFFF" fill-opacity="0" fill-rule="evenodd" stroke="none" />
    <path d="M224 55.496C216.344 58.896 208.12 61.184 199.488 62.216C208.304 56.936 215.064 48.576 218.248 38.608C210.008 43.496 200.872 47.048 191.144 48.968C183.36 40.672 172.272 35.488 160 35.488C136.432 35.488 117.328 54.6 117.328 78.16C117.328 81.504 117.712 84.768 118.432 87.88C82.968 86.104 51.528 69.112 30.472 43.288C26.808 49.592 24.704 56.92 24.704 64.752C24.704 79.552 32.232 92.616 43.68 100.264C36.688 100.04 30.104 98.12 24.352 94.928C24.352 95.112 24.352 95.28 24.352 95.464C24.352 116.144 39.056 133.392 58.584 137.304C55.008 138.28 51.232 138.8 47.336 138.8C44.592 138.8 41.912 138.528 39.312 138.04C44.744 154.992 60.504 167.336 79.176 167.68C64.576 179.128 46.176 185.952 26.176 185.952C22.736 185.952 19.336 185.752 15.992 185.352C34.88 197.456 57.304 204.52 81.408 204.52C159.904 204.52 202.816 139.496 202.816 83.104C202.816 81.256 202.776 79.416 202.696 77.584C211.04 71.56 218.28 64.048 224 55.496L224 55.496Z" id="Shape" fill="url(#gradient_1)" stroke="none" />
  </g>
</svg>